<svg xmlns="http://www.w3.org/2000/svg" width="97" height="97" viewBox="0 0 97 97">
    <g fill="none" fill-rule="evenodd">
        <path stroke="#313131" stroke-linecap="round" stroke-linejoin="round" stroke-width="2.7" d="M7.91 25.07C12.432 10.545 25.98 0 41.99 0c19.707 0 35.685 15.973 35.685 35.68" transform="translate(9.38 10.778)"/>
        <path stroke="#313131" stroke-linecap="round" stroke-linejoin="round" stroke-width="2.7" d="M7.879 46.229c4.52 14.523 18.069 25.069 34.079 25.069 19.707 0 35.685-15.973 35.685-35.68" transform="translate(9.38 10.778)"/>
        <path stroke="#313131" stroke-linecap="round" stroke-linejoin="round" stroke-width="2.7" d="M15.711 26.855L14.475 25.973 8.159 21.802 2.127 26.645 1.397 27.269" transform="translate(9.38 10.778) scale(1 -1) rotate(-12 -224.882 0)"/>
        <g>
            <path fill="#1DBDC0" d="M29.114 29.332c-6.661 6.712-17.459 6.712-24.12 0-6.659-6.711-6.659-17.59 0-24.3 6.661-6.71 17.459-6.71 24.12 0 6.661 6.71 6.661 17.589 0 24.3" transform="translate(9.38 10.778) translate(24.8 18.912)"/>
            <path stroke="#313131" stroke-linecap="round" stroke-linejoin="round" stroke-width="2.7" d="M29.114 29.332c-6.661 6.712-17.459 6.712-24.12 0-6.659-6.711-6.659-17.59 0-24.3 6.661-6.71 17.459-6.71 24.12 0 6.661 6.71 6.661 17.589 0 24.3zM22.07 22.236L12.037 12.129M22.07 12.128L12.037 22.235" transform="translate(9.38 10.778) translate(24.8 18.912)"/>
        </g>
    </g>
</svg>
