<svg xmlns="http://www.w3.org/2000/svg" width="266" height="115" viewBox="0 0 266 115">
    <g fill="none" fill-rule="evenodd">
        <path fill="#1DBDC0" fill-rule="nonzero" d="M152.311 20.535c-9.802-9.9-22.829-15.339-36.694-15.339-13.866 0-26.892 5.44-36.695 15.339-9.803 9.898-15.19 23.052-15.19 37.053 0 14 5.387 27.155 15.19 37.053 9.803 9.9 22.83 15.339 36.695 15.339 8.914 0 17.481-2.248 25.068-6.484a52.12 52.12 0 0 0 11.626-8.855c8.892-8.978 14.15-20.635 15.052-33.173.092-1.284.139-2.579.139-3.88 0-14-5.388-27.155-15.19-37.053zm-36.694 86.225c-26.84 0-48.697-22.069-48.697-49.172 0-27.103 21.856-49.172 48.697-49.172 26.84 0 48.696 22.069 48.696 49.172 0 .882-.023 1.759-.069 2.63-1 19.058-12.81 35.282-29.334 42.515a47.996 47.996 0 0 1-19.293 4.027z"/>
        <path fill="#FFF" d="M136.776 61.979h40.001v39.22h-40z"/>
        <path fill="#434A54" fill-rule="nonzero" d="M203.422 84.25a1.528 1.528 0 0 0-.19-.532l-.018-.032a1.56 1.56 0 0 0-.165-.222c-.004-.004-.006-.01-.01-.015l-9.604-10.564a5.26 5.26 0 0 0-3.882-1.723H179.17v-4.714c-.003-2.937-2.36-5.317-5.269-5.32h-34.566a4.058 4.058 0 0 0-4.058 4.058v33.261c0 1.142.481 2.231 1.326 3 1.279 1.165 2.433 1.748 3.463 1.75h3.268c.74 3.823 4.058 6.582 7.916 6.582 3.859 0 7.177-2.759 7.916-6.582H180.8c.74 3.823 4.057 6.582 7.916 6.582 3.858 0 7.176-2.759 7.916-6.582h1.544c2.908-.004 5.266-2.384 5.269-5.32V84.5c0-.07-.006-.141-.016-.211l-.006-.04zm-13.87-9.976c.613.001 1.198.26 1.612.715l7.232 7.956H179.17v-8.67h10.383zM137.88 97.876V66.448a2.2 2.2 0 0 1 2.187-2.208h33.836a2.2 2.2 0 0 1 2.186 2.208v33.637h-16.922c-.74-3.823-4.057-6.582-7.916-6.582-3.858 0-7.176 2.76-7.916 6.582h-3.268a2.2 2.2 0 0 1-2.187-2.209zm13.371 8.796a4.983 4.983 0 0 1-4.603-3.106 5.067 5.067 0 0 1 1.08-5.483 4.948 4.948 0 0 1 5.43-1.09 5.032 5.032 0 0 1 3.077 4.647c-.003 2.778-2.233 5.029-4.984 5.032zm37.464 0c-2.752 0-4.983-2.253-4.983-5.032 0-2.778 2.231-5.03 4.983-5.03 2.753 0 4.984 2.252 4.984 5.03-.003 2.778-2.233 5.029-4.984 5.032zm11.648-8.796a2.2 2.2 0 0 1-2.187 2.209h-1.544c-.74-3.824-4.058-6.583-7.916-6.583-3.859 0-7.177 2.76-7.916 6.583h-1.629V86.057h21.192v11.82z"/>
        <path fill="#1DBDC0" fill-rule="nonzero" d="M123.743 49.945h-4.232c.681.612 1.136 1.425 1.363 2.438h2.87v1.98h-2.728c-.094 1.434-.587 2.61-1.477 3.528-.89.918-2.074 1.51-3.55 1.778.53.153 1.008.406 1.434.76.426.354.828.837 1.207 1.449l4.318 6.54h-3.494l-4.261-6.54c-.455-.708-.923-1.205-1.406-1.492-.483-.287-1.132-.43-1.946-.43h-4.119v-2.38h6.136c2.613 0 4.034-1.072 4.26-3.213h-10.396v-1.98h10.255c-.474-1.625-1.847-2.438-4.12-2.438h-6.135v-1.95h16.021v1.95z"/>
    </g>
</svg>
