<?xml version="1.0" encoding="UTF-8"?>
<svg width="160px" height="48px" viewBox="0 0 160 48" version="1.1" xmlns="http://www.w3.org/2000/svg" xmlns:xlink="http://www.w3.org/1999/xlink">
    <!-- Generator: Sketch 62 (91390) - https://sketch.com -->
    <title>Google_Play_Store_badge_EN</title>
    <desc>Created with Sketch.</desc>
    <defs>
        <linearGradient x1="61.0301652%" y1="4.94958549%" x2="26.4625815%" y2="71.9258683%" id="linearGradient-1">
            <stop stop-color="#00A0FF" offset="0%"></stop>
            <stop stop-color="#00A1FF" offset="0.6569999%"></stop>
            <stop stop-color="#00BEFF" offset="26.01%"></stop>
            <stop stop-color="#00D2FF" offset="51.22%"></stop>
            <stop stop-color="#00DFFF" offset="76.04%"></stop>
            <stop stop-color="#00E3FF" offset="100%"></stop>
        </linearGradient>
        <linearGradient x1="107.630451%" y1="50.0004315%" x2="-130.551706%" y2="50.0004315%" id="linearGradient-2">
            <stop stop-color="#FFE000" offset="0%"></stop>
            <stop stop-color="#FFBD00" offset="40.87%"></stop>
            <stop stop-color="#FFA500" offset="77.54%"></stop>
            <stop stop-color="#FF9C00" offset="100%"></stop>
        </linearGradient>
        <linearGradient x1="86.243474%" y1="30.90425%" x2="-50.1292379%" y2="136.019454%" id="linearGradient-3">
            <stop stop-color="#FF3A44" offset="0%"></stop>
            <stop stop-color="#C31162" offset="100%"></stop>
        </linearGradient>
        <linearGradient x1="-18.8105628%" y1="-11.8250802%" x2="42.0848536%" y2="35.086648%" id="linearGradient-4">
            <stop stop-color="#32A071" offset="0%"></stop>
            <stop stop-color="#2DA771" offset="6.85%"></stop>
            <stop stop-color="#15CF74" offset="47.62%"></stop>
            <stop stop-color="#06E775" offset="80.09%"></stop>
            <stop stop-color="#00F076" offset="100%"></stop>
        </linearGradient>
    </defs>
    <g id="Main" stroke="none" stroke-width="1" fill="none" fill-rule="evenodd">
        <g id="Homepage_Update---Powerplay" transform="translate(-100.000000, -7768.000000)">
            <g id="Group-58-Copy" transform="translate(0.000000, 7118.000000)">
                <g id="Group-55" transform="translate(100.000000, 435.000000)">
                    <g id="Google_Play_Store_badge_EN" transform="translate(0.000000, 215.000000)">
                        <path d="M154.066225,47.2111847 L5.92788815,47.2111847 C2.66077999,47.2111847 0,44.5504047 0,41.3097866 L0,5.90139809 C0,2.64900662 2.66077999,0 5.92788815,0 L154.066225,0 C157.33039,0 159.994113,2.64900662 159.994113,5.90139809 L159.994113,41.3097866 C159.994113,44.5504047 157.33039,47.2111847 154.066225,47.2111847 Z" id="Path" fill="#000000" fill-rule="nonzero"></path>
                        <path d="M154.066225,0.944812362 C156.806475,0.944812362 159.049301,3.17292127 159.049301,5.90139809 L159.049301,41.3097866 C159.049301,44.0382634 156.821192,46.2663723 154.066225,46.2663723 L5.92788815,46.2663723 C3.18763797,46.2663723 0.944812362,44.0382634 0.944812362,41.3097866 L0.944812362,5.90139809 C0.944812362,3.17292127 3.17292127,0.944812362 5.92788815,0.944812362 C5.92788815,0.944812362 154.066225,0.944812362 154.066225,0.944812362 Z M154.066225,0 L5.92788815,0 C2.66077999,0 0,2.66077999 0,5.90139809 L0,41.3097866 C0,44.5621781 2.66077999,47.2111847 5.92788815,47.2111847 L154.066225,47.2111847 C157.33039,47.2111847 159.994113,44.5621781 159.994113,41.3097866 L159.994113,5.90139809 C159.994113,2.66077999 157.33039,0 154.066225,0 Z" id="Shape" fill="#A6A6A6"></path>
                        <path d="M84.285504,15.6173657 C83.2170714,15.6173657 82.3164091,15.2435614 81.6041207,14.5077263 C80.8977189,13.7924945 80.5033113,12.8064753 80.5209713,11.7998528 C80.5209713,10.7255335 80.8859455,9.81604121 81.6041207,9.09492274 C82.3134658,8.35908756 83.214128,7.9852833 84.2825607,7.9852833 C85.33922,7.9852833 86.2398823,8.35908756 86.9639441,9.09492274 C87.6821192,9.83958793 88.0470935,10.7490802 88.0470935,11.7998528 C88.0353201,12.8771155 87.6703458,13.7866078 86.9639441,14.5047829 C86.254599,15.2465048 85.3539367,15.6173657 84.285504,15.6173657 Z M52.4944812,15.6173657 C51.4495953,15.6173657 50.5430464,15.2494481 49.8013245,14.522443 C49.0654893,13.7983812 48.6916851,12.8830022 48.6916851,11.8027962 C48.6916851,10.7225901 49.0654893,9.80721118 49.8013245,9.08314937 C50.5283297,8.35614422 51.4348786,7.98822664 52.4944812,7.98822664 C53.0125092,7.98822664 53.5158205,8.09124356 53.9985283,8.30022075 C54.4724062,8.50331126 54.8579838,8.77998528 55.1434879,9.11846946 L55.214128,9.20382634 L54.4164827,9.98675497 L54.3340692,9.88962472 C53.883738,9.35393672 53.2803532,9.0919794 52.4827079,9.0919794 C51.7704194,9.0919794 51.1493745,9.3451067 50.6372333,9.84547461 C50.1221486,10.3487859 49.8601913,11.0080942 49.8601913,11.8057395 C49.8601913,12.6033848 50.1221486,13.2626932 50.6372333,13.7660044 C51.1493745,14.2663723 51.7704194,14.5194996 52.4827079,14.5194996 C53.2420898,14.5194996 53.8807947,14.2663723 54.3782193,13.7660044 C54.6725533,13.4716703 54.8550405,13.0596026 54.919794,12.5386313 L52.3620309,12.5386313 L52.3620309,11.4378219 L56.01766,11.4378219 L56.0323767,11.5378955 C56.0588668,11.723326 56.0853569,11.9146431 56.0853569,12.0912436 C56.0853569,13.1066961 55.7792494,13.9278882 55.1729213,14.5342163 C54.4841795,15.2523915 53.5835173,15.6173657 52.4944812,15.6173657 Z M94.7637969,15.4613687 L93.6364974,15.4613687 L90.1839588,9.93671818 L90.2133922,10.9315673 L90.2133922,15.4584253 L89.0860927,15.4584253 L89.0860927,8.14422369 L90.3723326,8.14422369 L90.4076527,8.20014717 L93.6541575,13.4039735 L93.6247241,12.4120677 L93.6247241,8.14422369 L94.7637969,8.14422369 L94.7637969,15.4613687 L94.7637969,15.4613687 Z M75.8145695,15.4613687 L74.6725533,15.4613687 L74.6725533,9.24503311 L72.6916851,9.24503311 L72.6916851,8.14422369 L77.7924945,8.14422369 L77.7924945,9.24503311 L75.8116262,9.24503311 L75.8116262,15.4613687 L75.8145695,15.4613687 Z M71.7615894,15.4613687 L70.6225166,15.4613687 L70.6225166,8.14422369 L71.7615894,8.14422369 L71.7615894,15.4613687 Z M65.3598234,15.4613687 L64.2207506,15.4613687 L64.2207506,9.24503311 L62.2398823,9.24503311 L62.2398823,8.14422369 L67.3406917,8.14422369 L67.3406917,9.24503311 L65.3598234,9.24503311 L65.3598234,15.4613687 Z M61.5187638,15.4495953 L57.1508462,15.4495953 L57.1508462,8.14422369 L61.5187638,8.14422369 L61.5187638,9.24503311 L58.2928624,9.24503311 L58.2928624,11.2523915 L61.2038263,11.2523915 L61.2038263,12.3414275 L58.2928624,12.3414275 L58.2928624,14.3487859 L61.5187638,14.3487859 L61.5187638,15.4495953 Z M82.4400294,13.7512877 C82.9492274,14.2604857 83.5673289,14.5165563 84.285504,14.5165563 C85.0242826,14.5165563 85.6276674,14.2663723 86.1309787,13.7512877 C86.6313466,13.2509198 86.8844739,12.5945548 86.8844739,11.8027962 C86.8844739,11.0110375 86.6313466,10.3517292 86.133922,9.85430464 C85.6247241,9.3451067 85.0036792,9.08903606 84.2884474,9.08903606 C83.5496689,9.08903606 82.946284,9.33922001 82.4459161,9.85430464 C81.9455482,10.3546726 81.6924209,11.0110375 81.6924209,11.8027962 C81.6924209,12.5945548 81.9426049,13.2538631 82.4400294,13.7512877 L82.4400294,13.7512877 Z" id="Shape" fill="#FFFFFF" fill-rule="nonzero"></path>
                        <path d="M80.415011,25.6777042 C77.6335541,25.6777042 75.3789551,27.7880795 75.3789551,30.6990434 C75.3789551,33.5835173 77.6482708,35.7203826 80.415011,35.7203826 C83.196468,35.7203826 85.451067,33.5952907 85.451067,30.6990434 C85.451067,27.7880795 83.196468,25.6777042 80.415011,25.6777042 Z M80.415011,33.7306843 C78.8933039,33.7306843 77.5835173,32.4709345 77.5835173,30.6872701 C77.5835173,28.8771155 78.8962472,27.6438558 80.415011,27.6438558 C81.9367182,27.6438558 83.2465097,28.8771155 83.2465097,30.6872701 C83.2494481,32.4827079 81.9367182,33.7306843 80.415011,33.7306843 Z M69.4275202,25.6777042 C66.6460633,25.6777042 64.3914643,27.7880795 64.3914643,30.6990434 C64.3914643,33.5835173 66.66078,35.7203826 69.4275202,35.7203826 C72.2089772,35.7203826 74.4635762,33.5952907 74.4635762,30.6990434 C74.4635762,27.7880795 72.2060338,25.6777042 69.4275202,25.6777042 Z M69.4275202,33.7306843 C67.9058131,33.7306843 66.5960265,32.4709345 66.5960265,30.6872701 C66.5960265,28.8771155 67.9087564,27.6438558 69.4275202,27.6438558 C70.9492274,27.6438558 72.259014,28.8771155 72.259014,30.6872701 C72.259014,32.4827079 70.9492274,33.7306843 69.4275202,33.7306843 Z M56.3532009,27.2111847 L56.3532009,29.3362767 L61.4540103,29.3362767 C61.2980132,30.5283297 60.9036056,31.4083885 60.3002208,32.0117734 C59.5526122,32.7593819 58.3988227,33.5717439 56.3649742,33.5717439 C53.2303164,33.5717439 50.7785136,31.0404709 50.7785136,27.9058131 C50.7785136,24.7711553 53.2303164,22.2398823 56.3649742,22.2398823 C58.0573951,22.2398823 59.2906549,22.9080206 60.2060338,23.7615894 L61.7130243,22.254599 C60.4415011,21.0360559 58.7490802,20.1030169 56.3767476,20.1030169 C52.0765269,20.1030169 48.4679912,23.6055923 48.4679912,27.8940397 C48.4679912,32.1942605 52.0735835,35.6850625 56.3767476,35.6850625 C58.6990434,35.6850625 60.4415011,34.9256806 61.8189845,33.4952171 C63.2229581,32.0912436 63.6674025,30.1103753 63.6674025,28.5121413 C63.6674025,28.0147167 63.6291391,27.5673289 63.5496689,27.187638 L56.3502575,27.187638 C56.3532009,27.1846946 56.3532009,27.2111847 56.3532009,27.2111847 Z M109.830758,28.8653422 C109.40986,27.7380427 108.138337,25.6659308 105.530537,25.6659308 C102.946284,25.6659308 100.797645,27.6997792 100.797645,30.6872701 C100.797645,33.5069904 102.922737,35.7086093 105.780721,35.7086093 C108.076527,35.7086093 109.412804,34.3046358 109.963208,33.4805004 L108.259014,32.3384842 C107.693893,33.1773363 106.908021,33.727741 105.792494,33.727741 C104.665195,33.727741 103.87638,33.2155997 103.352465,32.2060338 L110.066225,29.4245769 C110.066225,29.4275202 109.830758,28.8653422 109.830758,28.8653422 Z M102.984547,30.5430464 C102.931567,28.6033848 104.491538,27.6173657 105.607064,27.6173657 C106.487123,27.6173657 107.220015,28.0500368 107.470199,28.6799117 L102.984547,30.5430464 Z M97.5305372,35.4083885 L99.7350993,35.4083885 L99.7350993,20.656365 L97.5305372,20.656365 L97.5305372,35.4083885 Z M93.9102281,26.7932303 L93.8307579,26.7932303 C93.3333333,26.2016188 92.388521,25.6659308 91.1817513,25.6659308 C88.6769684,25.6659308 86.3693893,27.870493 86.3693893,30.7019868 C86.3693893,33.5217071 88.665195,35.6997792 91.1817513,35.6997792 C92.3738043,35.6997792 93.3333333,35.1611479 93.8307579,34.5577631 L93.9102281,34.5577631 L93.9102281,35.2788815 C93.9102281,37.1949963 92.8859455,38.2281089 91.2347314,38.2281089 C89.883738,38.2281089 89.0448859,37.2568065 88.7034584,36.4444444 L86.7873436,37.2450331 C87.3377483,38.5695364 88.8064753,40.2089772 91.2317881,40.2089772 C93.8160412,40.2089772 96.0058867,38.6872701 96.0058867,34.9757174 L96.0058867,25.9661516 L93.9220015,25.9661516 L93.9220015,26.7932303 C93.9249448,26.7932303 93.9102281,26.7932303 93.9102281,26.7932303 Z M91.3789551,33.7306843 C89.857248,33.7306843 88.5857248,32.4591611 88.5857248,30.7019868 C88.5857248,28.9300957 89.857248,27.6467991 91.3789551,27.6467991 C92.8859455,27.6467991 94.0544518,28.9448124 94.0544518,30.7019868 C94.0691685,32.4591611 92.8888889,33.7306843 91.3789551,33.7306843 Z M120.153054,20.656365 L114.881531,20.656365 L114.881531,35.4083885 L117.086093,35.4083885 L117.086093,29.8219279 L120.155997,29.8219279 C122.596026,29.8219279 124.994849,28.0529801 124.994849,25.2450331 C124.994849,22.4370861 122.604857,20.656365 120.153054,20.656365 Z M120.217807,27.7615894 L117.083149,27.7615894 L117.083149,22.6990434 L120.217807,22.6990434 C121.869021,22.6990434 122.80206,24.0618102 122.80206,25.2303164 C122.80206,26.3870493 121.857248,27.7615894 120.217807,27.7615894 Z M133.830758,25.6512141 C132.229581,25.6512141 130.578366,26.3605592 129.895511,27.9058131 L131.84989,28.7181751 C132.270787,27.9058131 133.041943,27.6291391 133.857248,27.6291391 C134.999264,27.6291391 136.153054,28.3119941 136.179544,29.5305372 L136.179544,29.6865342 C135.785136,29.4628403 134.919794,29.1214128 133.883738,29.1214128 C131.773363,29.1214128 129.633554,30.2752024 129.633554,32.4385578 C129.633554,34.419426 131.364238,35.6909492 133.292127,35.6909492 C134.772627,35.6909492 135.587932,35.0228109 136.09713,34.2487123 L136.1766,34.2487123 L136.1766,35.3907285 L138.301692,35.3907285 L138.301692,29.7395143 C138.301692,27.1081678 136.347314,25.6512141 133.830758,25.6512141 Z M133.554084,33.7306843 C132.832965,33.7306843 131.8234,33.3774834 131.8234,32.4709345 C131.8234,31.3289183 133.083149,30.8962472 134.157469,30.8962472 C135.128771,30.8962472 135.587932,31.1052244 136.164827,31.3936718 C136.005887,32.7181751 134.887417,33.718911 133.554084,33.7306843 Z M146.054452,25.9661516 L143.523179,32.3649742 L143.443709,32.3649742 L140.821192,25.9661516 L138.448859,25.9661516 L142.384106,34.9109639 L140.14128,39.8822664 L142.437086,39.8822664 L148.491538,25.9661516 C148.491538,25.9661516 146.054452,25.9661516 146.054452,25.9661516 Z M126.210449,35.4083885 L128.415011,35.4083885 L128.415011,20.656365 L126.210449,20.656365 L126.210449,35.4083885 Z" id="Shape" fill="#FFFFFF"></path>
                        <path d="M12.3149375,8.89183223 C11.9735099,9.25974982 11.7763061,9.82192789 11.7763061,10.5577631 L11.7763061,36.656365 C11.7763061,37.3922001 11.9735099,37.9543782 12.3267108,38.3075791 L12.4179544,38.3870493 L27.0404709,23.7645327 L27.0404709,23.4378219 L12.406181,8.81236203 C12.406181,8.81236203 12.3149375,8.89183223 12.3149375,8.89183223 Z" id="Path" fill="url(#linearGradient-1)"></path>
                        <path d="M31.9058131,28.6534216 L27.0286976,23.7763061 L27.0286976,23.4348786 L31.9058131,18.5577631 L32.0117734,18.6225166 L37.7807211,21.9013981 C39.4319352,22.8314937 39.4319352,24.3679176 37.7807211,25.3097866 L32.0117734,28.5886681 C32.0117734,28.5886681 31.9058131,28.6534216 31.9058131,28.6534216 Z" id="Path" fill="url(#linearGradient-2)"></path>
                        <path d="M32.0117734,28.5886681 L27.0286976,23.6055923 L12.3149375,38.3193525 C12.8535688,38.8962472 13.7571744,38.9610007 14.7667403,38.3988227 L32.0117734,28.5886681" id="Path" fill="url(#linearGradient-3)"></path>
                        <path d="M32.0117734,18.6225166 L14.7667403,8.82707873 C13.7571744,8.25018396 12.8506255,8.32965416 12.3149375,8.90654893 L27.0286976,23.6055923 L32.0117734,18.6225166 Z" id="Path" fill="url(#linearGradient-4)"></path>
                        <path d="M31.9058131,28.4827079 L14.7785136,38.2133922 C13.8219279,38.7637969 12.9683591,38.7255335 12.4179544,38.2251656 L12.3267108,38.3164091 L12.4179544,38.3958793 C12.9683591,38.8933039 13.8219279,38.9345107 14.7785136,38.384106 L32.0235467,28.5886681 C32.0235467,28.5886681 31.9058131,28.4827079 31.9058131,28.4827079 Z" id="Path" fill="#000000" fill-rule="nonzero" opacity="0.2"></path>
                        <path d="M37.7807211,25.1390728 L31.8910964,28.4827079 L31.9970567,28.5886681 L37.7660044,25.3097866 C38.5930831,24.8388521 38.9992642,24.2207506 38.9992642,23.6055923 C38.9492274,24.1707138 38.5283297,24.7064018 37.7807211,25.1390728 Z" id="Path" fill="#000000" fill-rule="nonzero" opacity="0.12"></path>
                        <path d="M14.7667403,8.99779249 L37.7807211,22.0721118 C38.5283297,22.4930096 38.9492274,23.0434143 39.0139809,23.6055923 C39.0139809,22.9904341 38.6077999,22.3723326 37.7807211,21.9013981 L14.7667403,8.82707873 C13.1155261,7.88226637 11.7763061,8.67108168 11.7763061,10.5577631 L11.7763061,10.7284768 C11.7763061,8.8388521 13.1155261,8.0647535 14.7667403,8.99779249 Z" id="Path" fill="#FFFFFF" opacity="0.25"></path>
                    </g>
                </g>
            </g>
        </g>
    </g>
</svg>