<?xml version="1.0" encoding="UTF-8"?>
<svg width="160px" height="48px" viewBox="0 0 160 48" version="1.1" xmlns="http://www.w3.org/2000/svg" xmlns:xlink="http://www.w3.org/1999/xlink">
    <!-- Generator: Sketch 62 (91390) - https://sketch.com -->
    <title>Download_on_the_App_Store_Badge</title>
    <desc>Created with Sketch.</desc>
    <g id="Main" stroke="none" stroke-width="1" fill="none" fill-rule="evenodd">
        <g id="Homepage_Update---Powerplay" transform="translate(-276.000000, -7768.000000)" fill-rule="nonzero">
            <g id="Group-58-Copy" transform="translate(0.000000, 7118.000000)">
                <g id="Group-55" transform="translate(100.000000, 435.000000)">
                    <g id="Download_on_the_App_Store_Badge" transform="translate(176.000000, 215.000000)">
                        <path d="M154.307556,47.4074074 L5.60474074,47.4074074 C2.51496296,47.4074074 0,44.8853333 0,41.7979259 L0,5.60118519 C0,2.51259259 2.51496296,0 5.60474074,0 L154.307556,0 C157.396148,0 160,2.51259259 160,5.60118519 L160,41.7979259 C160,44.8853333 157.396148,47.4074074 154.307556,47.4074074 L154.307556,47.4074074 Z" id="Path" fill="#A6A6A6"></path>
                        <path d="M158.852741,41.7991111 C158.852741,44.306963 156.821333,46.3383704 154.308741,46.3383704 L5.60474074,46.3383704 C3.09333333,46.3383704 1.05481481,44.306963 1.05481481,41.7991111 L1.05481481,5.6 C1.05481481,3.09333333 3.09333333,1.05481481 5.60474074,1.05481481 L154.307556,1.05481481 C156.821333,1.05481481 158.852741,3.09333333 158.852741,5.6 L158.852741,41.7991111 L158.852741,41.7991111 Z" id="Path" fill="#000000"></path>
                        <g id="Group" transform="translate(14.222222, 7.111111)" fill="#FFFFFF">
                            <path d="M21.485037,16.3365926 C21.4506667,12.5167407 24.6127407,10.6583704 24.7573333,10.5718519 C22.9665185,7.96088889 20.1908148,7.60414815 19.2154074,7.5757037 C16.8841481,7.33037037 14.6228148,8.97066667 13.4352593,8.97066667 C12.224,8.97066667 10.3952593,7.59940741 8.4242963,7.6397037 C5.888,7.67881481 3.51525926,9.14725926 2.21392593,11.4275556 C-0.471703704,16.077037 1.53125926,22.9096296 4.1042963,26.6678519 C5.39140741,28.5084444 6.89540741,30.5635556 8.864,30.4912593 C10.7899259,30.4118519 11.5093333,29.2634074 13.8334815,29.2634074 C16.1362963,29.2634074 16.8118519,30.4912593 18.8195556,30.445037 C20.8865185,30.4118519 22.1878519,28.5961481 23.4299259,26.738963 C24.9173333,24.6293333 25.5146667,22.5517037 25.5383704,22.445037 C25.4897778,22.4284444 21.5241481,20.914963 21.485037,16.3365926 Z" id="Path"></path>
                            <path d="M17.6924444,5.10340741 C18.7282963,3.808 19.437037,2.04562963 19.2402963,0.257185185 C17.741037,0.323555556 15.8660741,1.29422222 14.7863704,2.56118519 C13.8311111,3.67762963 12.9777778,5.50755556 13.1982222,7.22844444 C14.8823704,7.35407407 16.6115556,6.37866667 17.6924444,5.10340741 Z" id="Path"></path>
                        </g>
                        <g id="Group" transform="translate(49.777778, 21.333333)" fill="#FFFFFF">
                            <path d="M13.8014815,16.0047407 L11.1099259,16.0047407 L9.63555556,11.3718519 L4.51081481,11.3718519 L3.10637037,16.0047407 L0.485925926,16.0047407 L5.56325926,0.232296296 L8.69925926,0.232296296 L13.8014815,16.0047407 Z M9.19111111,9.42814815 L7.85777778,5.30962963 C7.71674074,4.88888889 7.45244444,3.89807407 7.06251852,2.33837037 L7.01511111,2.33837037 C6.85985185,3.00918519 6.60977778,4 6.26607407,5.30962963 L4.95644444,9.42814815 L9.19111111,9.42814815 L9.19111111,9.42814815 Z" id="Shape"></path>
                            <path d="M26.8586667,10.1783704 C26.8586667,12.1125926 26.336,13.6414815 25.2906667,14.7638519 C24.3543704,15.762963 23.1917037,16.2619259 21.8038519,16.2619259 C20.3057778,16.2619259 19.2296296,15.7238519 18.5742222,14.6477037 L18.5268148,14.6477037 L18.5268148,20.6388148 L16,20.6388148 L16,8.3757037 C16,7.1597037 15.968,5.9117037 15.9063704,4.6317037 L18.1285926,4.6317037 L18.2696296,6.43437037 L18.317037,6.43437037 C19.1597037,5.07614815 20.4385185,4.39822222 22.1546667,4.39822222 C23.4962963,4.39822222 24.6162963,4.928 25.5122963,5.98874074 C26.4106667,7.05066667 26.8586667,8.44681481 26.8586667,10.1783704 Z M24.2844444,10.2708148 C24.2844444,9.16385185 24.0355556,8.25125926 23.5354074,7.53303704 C22.989037,6.784 22.2554074,6.40948148 21.3357037,6.40948148 C20.7122963,6.40948148 20.1457778,6.61807407 19.6397037,7.02933333 C19.1324444,7.44414815 18.8005926,7.98577778 18.6453333,8.65659259 C18.5671111,8.96948148 18.528,9.22548148 18.528,9.42696296 L18.528,11.3232593 C18.528,12.1505185 18.7816296,12.8485926 19.2888889,13.4186667 C19.7961481,13.9887407 20.4551111,14.2731852 21.2657778,14.2731852 C22.2174815,14.2731852 22.9582222,13.9057778 23.488,13.1733333 C24.018963,12.4397037 24.2844444,11.4725926 24.2844444,10.2708148 Z" id="Shape"></path>
                            <path d="M39.9395556,10.1783704 C39.9395556,12.1125926 39.4168889,13.6414815 38.3703704,14.7638519 C37.4352593,15.762963 36.2725926,16.2619259 34.8847407,16.2619259 C33.3866667,16.2619259 32.3105185,15.7238519 31.6562963,14.6477037 L31.6088889,14.6477037 L31.6088889,20.6388148 L29.0820741,20.6388148 L29.0820741,8.3757037 C29.0820741,7.1597037 29.0500741,5.9117037 28.9884444,4.6317037 L31.2106667,4.6317037 L31.3517037,6.43437037 L31.3991111,6.43437037 C32.2405926,5.07614815 33.5194074,4.39822222 35.2367407,4.39822222 C36.5771852,4.39822222 37.6971852,4.928 38.5955556,5.98874074 C39.4903704,7.05066667 39.9395556,8.44681481 39.9395556,10.1783704 Z M37.3653333,10.2708148 C37.3653333,9.16385185 37.1152593,8.25125926 36.6151111,7.53303704 C36.0687407,6.784 35.3374815,6.40948148 34.4165926,6.40948148 C33.792,6.40948148 33.2266667,6.61807407 32.7194074,7.02933333 C32.2121481,7.44414815 31.8814815,7.98577778 31.7262222,8.65659259 C31.6491852,8.96948148 31.6088889,9.22548148 31.6088889,9.42696296 L31.6088889,11.3232593 C31.6088889,12.1505185 31.8625185,12.8485926 32.3674074,13.4186667 C32.8746667,13.9875556 33.5336296,14.2731852 34.3466667,14.2731852 C35.2983704,14.2731852 36.0391111,13.9057778 36.5688889,13.1733333 C37.0998519,12.4397037 37.3653333,11.4725926 37.3653333,10.2708148 Z" id="Shape"></path>
                            <path d="M54.5647407,11.5816296 C54.5647407,12.9232593 54.098963,14.0148148 53.1638519,14.8574815 C52.1362963,15.7783704 50.7057778,16.2382222 48.8675556,16.2382222 C47.1703704,16.2382222 45.8097778,15.9111111 44.7798519,15.2557037 L45.3653333,13.1496296 C46.4746667,13.8204444 47.6918519,14.157037 49.0180741,14.157037 C49.9697778,14.157037 50.7105185,13.9413333 51.2426667,13.5122963 C51.7724444,13.0832593 52.0367407,12.5072593 52.0367407,11.789037 C52.0367407,11.149037 51.8186667,10.6097778 51.3813333,10.1724444 C50.9463704,9.73511111 50.2198519,9.32859259 49.2053333,8.95288889 C46.4438519,7.92296296 45.0642963,6.41422222 45.0642963,4.43022222 C45.0642963,3.13362963 45.5478519,2.07051852 46.5161481,1.24325926 C47.4808889,0.414814815 48.768,0.00118518519 50.3774815,0.00118518519 C51.8127407,0.00118518519 53.005037,0.251259259 53.9567407,0.750222222 L53.325037,2.81007407 C52.4361481,2.32651852 51.4311111,2.08474074 50.3063704,2.08474074 C49.4174815,2.08474074 48.722963,2.304 48.2251852,2.74014815 C47.8044444,3.13007407 47.5934815,3.60533333 47.5934815,4.1682963 C47.5934815,4.7917037 47.8340741,5.30725926 48.3176296,5.71259259 C48.7383704,6.08711111 49.5028148,6.49244444 50.6121481,6.92977778 C51.9691852,7.47614815 52.9659259,8.11496296 53.6071111,8.84740741 C54.2459259,9.57748148 54.5647407,10.4912593 54.5647407,11.5816296 Z" id="Path"></path>
                            <path d="M62.9191111,6.528 L60.1339259,6.528 L60.1339259,12.0497778 C60.1339259,13.4542222 60.6245926,14.1558519 61.6082963,14.1558519 C62.0598519,14.1558519 62.4343704,14.1167407 62.7306667,14.0385185 L62.8005926,15.9573333 C62.3028148,16.1434074 61.6474074,16.237037 60.8355556,16.237037 C59.8376296,16.237037 59.0577778,15.9324444 58.4948148,15.3244444 C57.9342222,14.7152593 57.6521481,13.6936296 57.6521481,12.2583704 L57.6521481,6.52562963 L55.9928889,6.52562963 L55.9928889,4.62933333 L57.6521481,4.62933333 L57.6521481,2.54696296 L60.1339259,1.79792593 L60.1339259,4.62933333 L62.9191111,4.62933333 L62.9191111,6.528 Z" id="Path"></path>
                            <path d="M75.4856296,10.2245926 C75.4856296,11.9727407 74.9854815,13.408 73.9875556,14.5303704 C72.941037,15.6859259 71.552,16.2619259 69.8204444,16.2619259 C68.1517037,16.2619259 66.8231111,15.7084444 65.8322963,14.6014815 C64.8414815,13.4945185 64.3460741,12.0971852 64.3460741,10.413037 C64.3460741,8.65066667 64.8557037,7.20711111 65.8785185,6.08474074 C66.898963,4.96118519 68.2761481,4.39940741 70.0077037,4.39940741 C71.6764444,4.39940741 73.0192593,4.95288889 74.0325926,6.06103704 C75.0020741,7.136 75.4856296,8.52385185 75.4856296,10.2245926 Z M72.864,10.3063704 C72.864,9.25748148 72.64,8.35792593 72.1860741,7.6077037 C71.6562963,6.69985185 70.898963,6.24711111 69.9176296,6.24711111 C68.9019259,6.24711111 68.1303704,6.70103704 67.6005926,7.6077037 C67.1466667,8.35911111 66.9226667,9.27288889 66.9226667,10.3537778 C66.9226667,11.4026667 67.1466667,12.3022222 67.6005926,13.0512593 C68.146963,13.9591111 68.9102222,14.4118519 69.8951111,14.4118519 C70.8598519,14.4118519 71.6171852,13.9496296 72.1635556,13.0275556 C72.6293333,12.2631111 72.864,11.3540741 72.864,10.3063704 Z" id="Shape"></path>
                            <path d="M83.698963,6.85392593 C83.4488889,6.8077037 83.1822222,6.784 82.9025185,6.784 C82.0136296,6.784 81.3262222,7.11940741 80.8426667,7.79140741 C80.4219259,8.384 80.210963,9.13303704 80.210963,10.0373333 L80.210963,16.0047407 L77.6853333,16.0047407 L77.709037,8.21333333 C77.709037,6.90251852 77.677037,5.70903704 77.6142222,4.63288889 L79.8151111,4.63288889 L79.9075556,6.80888889 L79.9774815,6.80888889 C80.2441481,6.06103704 80.6648889,5.45896296 81.2408889,5.00740741 C81.8038519,4.60088889 82.4118519,4.39822222 83.0672593,4.39822222 C83.3007407,4.39822222 83.5117037,4.41481481 83.698963,4.44444444 L83.698963,6.85392593 Z" id="Path"></path>
                            <path d="M94.9997037,9.78014815 C94.9997037,10.2328889 94.9700741,10.6145185 94.9072593,10.9262222 L87.3268148,10.9262222 C87.3564444,12.0497778 87.7226667,12.909037 88.4266667,13.5016296 C89.0654815,14.0314074 89.8915556,14.2968889 90.9060741,14.2968889 C92.0284444,14.2968889 93.0524444,14.1179259 93.9733333,13.7588148 L94.3691852,15.5128889 C93.293037,15.9822222 92.0225185,16.2157037 90.5564444,16.2157037 C88.7928889,16.2157037 87.4085926,15.6965926 86.4011852,14.6595556 C85.3961481,13.6225185 84.8924444,12.2299259 84.8924444,10.482963 C84.8924444,8.768 85.3605926,7.33985185 86.2980741,6.20088889 C87.2794074,4.98488889 88.6056296,4.37688889 90.2743704,4.37688889 C91.9134815,4.37688889 93.1543704,4.98488889 93.997037,6.20088889 C94.6642963,7.16681481 94.9997037,8.36148148 94.9997037,9.78014815 Z M92.5902222,9.12474074 C92.6068148,8.3757037 92.4420741,7.72859259 92.0995556,7.18222222 C91.6622222,6.47940741 90.9902222,6.12859259 90.0859259,6.12859259 C89.2598519,6.12859259 88.5878519,6.47111111 88.0746667,7.15851852 C87.6539259,7.70488889 87.4038519,8.3602963 87.3268148,9.12355556 L92.5902222,9.12355556 L92.5902222,9.12474074 Z" id="Shape"></path>
                        </g>
                        <g id="Group" transform="translate(50.962963, 7.111111)" fill="#FFFFFF">
                            <path d="M7.17037037,4.75140741 C7.17037037,6.14637037 6.752,7.19644444 5.91644444,7.90162963 C5.14251852,8.5522963 4.04266667,8.87822222 2.61807407,8.87822222 C1.9117037,8.87822222 1.30725926,8.84740741 0.801185185,8.78577778 L0.801185185,1.16385185 C1.46133333,1.05718519 2.17244444,1.00266667 2.94044444,1.00266667 C4.29748148,1.00266667 5.3202963,1.29777778 6.01007407,1.888 C6.78281481,2.55525926 7.17037037,3.50933333 7.17037037,4.75140741 Z M5.86074074,4.78577778 C5.86074074,3.88148148 5.62133333,3.18814815 5.14251852,2.70459259 C4.6637037,2.22222222 3.96444444,1.98044444 3.04355556,1.98044444 C2.65244444,1.98044444 2.31940741,2.00651852 2.04325926,2.06103704 L2.04325926,7.85540741 C2.19614815,7.87911111 2.47585185,7.88977778 2.88237037,7.88977778 C3.83288889,7.88977778 4.56651852,7.62548148 5.08325926,7.09688889 C5.6,6.5682963 5.86074074,5.79792593 5.86074074,4.78577778 Z" id="Shape"></path>
                            <path d="M14.1143704,5.96977778 C14.1143704,6.82903704 13.869037,7.53303704 13.3783704,8.08533333 C12.864,8.65303704 12.1825185,8.9362963 11.3315556,8.9362963 C10.5114074,8.9362963 9.85837037,8.66488889 9.37125926,8.1197037 C8.88533333,7.5757037 8.64237037,6.88948148 8.64237037,6.06222222 C8.64237037,5.19703704 8.89244444,4.48711111 9.39496296,3.936 C9.89748148,3.38488889 10.573037,3.10874074 11.424,3.10874074 C12.2441481,3.10874074 12.9031111,3.38014815 13.4020741,3.92414815 C13.8761481,4.45274074 14.1143704,5.13540741 14.1143704,5.96977778 Z M12.8260741,6.01007407 C12.8260741,5.49451852 12.7146667,5.05244444 12.493037,4.68385185 C12.2322963,4.23822222 11.8613333,4.01540741 11.378963,4.01540741 C10.88,4.01540741 10.5007407,4.23822222 10.24,4.68385185 C10.0171852,5.05244444 9.90696296,5.50162963 9.90696296,6.03259259 C9.90696296,6.54814815 10.0183704,6.99022222 10.24,7.35881481 C10.509037,7.80444444 10.8835556,8.02725926 11.3671111,8.02725926 C11.8411852,8.02725926 12.2133333,7.80088889 12.4811852,7.34696296 C12.7111111,6.97125926 12.8260741,6.52562963 12.8260741,6.01007407 Z" id="Shape"></path>
                            <path d="M23.4251852,3.22251852 L21.677037,8.80948148 L20.5392593,8.80948148 L19.8151111,6.38340741 C19.6314074,5.77777778 19.4820741,5.1757037 19.3659259,4.57837037 L19.3434074,4.57837037 C19.2355556,5.1922963 19.0862222,5.79318519 18.8942222,6.38340741 L18.125037,8.80948148 L16.9742222,8.80948148 L15.3303704,3.22251852 L16.6068148,3.22251852 L17.2385185,5.87851852 C17.3914074,6.50666667 17.517037,7.10518519 17.6177778,7.6717037 L17.6402963,7.6717037 C17.7327407,7.20474074 17.8856296,6.60977778 18.1013333,5.89037037 L18.8942222,3.2237037 L19.9063704,3.2237037 L20.6660741,5.83348148 C20.8497778,6.46992593 20.9991111,7.08266667 21.1140741,7.67288889 L21.1484444,7.67288889 C21.2325926,7.09807407 21.3594074,6.48533333 21.5277037,5.83348148 L22.2056296,3.2237037 L23.4251852,3.2237037 L23.4251852,3.22251852 Z" id="Path"></path>
                            <path d="M29.8642963,8.80948148 L28.6222222,8.80948148 L28.6222222,5.60948148 C28.6222222,4.62340741 28.2477037,4.13037037 27.4962963,4.13037037 C27.1277037,4.13037037 26.8302222,4.26548148 26.5991111,4.53688889 C26.3703704,4.8082963 26.2542222,5.1282963 26.2542222,5.49451852 L26.2542222,8.8082963 L25.0121481,8.8082963 L25.0121481,4.81896296 C25.0121481,4.3282963 24.9967407,3.79614815 24.9671111,3.22014815 L26.0586667,3.22014815 L26.1167407,4.09362963 L26.1511111,4.09362963 C26.2957037,3.82222222 26.5114074,3.59822222 26.7946667,3.41925926 C27.1312593,3.21066667 27.5081481,3.10518519 27.9205926,3.10518519 C28.4420741,3.10518519 28.8758519,3.27348148 29.2207407,3.61125926 C29.6497778,4.02488889 29.8642963,4.64237037 29.8642963,5.46251852 L29.8642963,8.80948148 L29.8642963,8.80948148 Z" id="Path"></path>
                            <polygon id="Path" points="33.2894815 8.80948148 32.0485926 8.80948148 32.0485926 0.658962963 33.2894815 0.658962963"></polygon>
                            <path d="M40.6020741,5.96977778 C40.6020741,6.82903704 40.3567407,7.53303704 39.8660741,8.08533333 C39.3517037,8.65303704 38.669037,8.9362963 37.8192593,8.9362963 C36.9979259,8.9362963 36.3448889,8.66488889 35.858963,8.1197037 C35.373037,7.5757037 35.1300741,6.88948148 35.1300741,6.06222222 C35.1300741,5.19703704 35.3801481,4.48711111 35.8826667,3.936 C36.3851852,3.38488889 37.0607407,3.10874074 37.9105185,3.10874074 C38.7318519,3.10874074 39.3896296,3.38014815 39.8897778,3.92414815 C40.3638519,4.45274074 40.6020741,5.13540741 40.6020741,5.96977778 Z M39.3125926,6.01007407 C39.3125926,5.49451852 39.2011852,5.05244444 38.9795556,4.68385185 C38.72,4.23822222 38.3478519,4.01540741 37.8666667,4.01540741 C37.3665185,4.01540741 36.9872593,4.23822222 36.7277037,4.68385185 C36.5048889,5.05244444 36.3946667,5.50162963 36.3946667,6.03259259 C36.3946667,6.54814815 36.5060741,6.99022222 36.7277037,7.35881481 C36.9967407,7.80444444 37.3712593,8.02725926 37.8548148,8.02725926 C38.3288889,8.02725926 38.6998519,7.80088889 38.9677037,7.34696296 C39.1988148,6.97125926 39.3125926,6.52562963 39.3125926,6.01007407 Z" id="Shape"></path>
                            <path d="M46.6133333,8.80948148 L45.4980741,8.80948148 L45.4056296,8.16592593 L45.3712593,8.16592593 C44.9896296,8.67911111 44.4456296,8.9362963 43.7392593,8.9362963 C43.2118519,8.9362963 42.7851852,8.76681481 42.464,8.43022222 C42.1724444,8.12444444 42.0266667,7.744 42.0266667,7.29244444 C42.0266667,6.60977778 42.3111111,6.08948148 42.8835556,5.72918519 C43.4548148,5.36888889 44.2583704,5.1922963 45.293037,5.20059259 L45.293037,5.0962963 C45.293037,4.3602963 44.9066667,3.99288889 44.1327407,3.99288889 C43.5816296,3.99288889 43.0957037,4.13155556 42.6761481,4.40651852 L42.4237037,3.59111111 C42.9428148,3.26992593 43.584,3.10874074 44.3401481,3.10874074 C45.8002963,3.10874074 46.5327407,3.87911111 46.5327407,5.41985185 L46.5327407,7.47733333 C46.5327407,8.03555556 46.56,8.48 46.6133333,8.80948148 Z M45.3238519,6.88948148 L45.3238519,6.02785185 C43.9537778,6.00414815 43.2687407,6.37985185 43.2687407,7.15377778 C43.2687407,7.44533333 43.346963,7.66340741 43.506963,7.80918519 C43.666963,7.95496296 43.8708148,8.02725926 44.1137778,8.02725926 C44.3863704,8.02725926 44.6411852,7.94074074 44.8734815,7.76888889 C45.106963,7.59585185 45.2503704,7.37659259 45.3037037,7.10755556 C45.3167407,7.04711111 45.3238519,6.97362963 45.3238519,6.88948148 Z" id="Shape"></path>
                            <path d="M53.6711111,8.80948148 L52.5688889,8.80948148 L52.5108148,7.9122963 L52.4764444,7.9122963 C52.1244444,8.59496296 51.5247407,8.9362963 50.6820741,8.9362963 C50.0088889,8.9362963 49.4482963,8.672 49.0038519,8.14340741 C48.5594074,7.61481481 48.3377778,6.92859259 48.3377778,6.08592593 C48.3377778,5.18162963 48.5783704,4.44918519 49.0619259,3.88977778 C49.5300741,3.3682963 50.1037037,3.10755556 50.7863704,3.10755556 C51.5365926,3.10755556 52.0616296,3.36 52.3602963,3.86607407 L52.384,3.86607407 L52.384,0.658962963 L53.6272593,0.658962963 L53.6272593,7.3042963 C53.6272593,7.8482963 53.6414815,8.34962963 53.6711111,8.80948148 Z M52.384,6.45333333 L52.384,5.52177778 C52.384,5.36059259 52.3721481,5.23022222 52.3496296,5.13066667 C52.2797037,4.832 52.1291852,4.58074074 51.9004444,4.37807407 C51.6693333,4.17540741 51.3908148,4.07348148 51.0696296,4.07348148 C50.6062222,4.07348148 50.2435556,4.25718519 49.9768889,4.62577778 C49.7125926,4.99437037 49.5786667,5.46488889 49.5786667,6.0397037 C49.5786667,6.592 49.7054815,7.04 49.9602963,7.38488889 C50.2293333,7.7522963 50.592,7.936 51.0459259,7.936 C51.4536296,7.936 51.7795556,7.78311111 52.0272593,7.47614815 C52.2666667,7.19288889 52.384,6.85155556 52.384,6.45333333 Z" id="Shape"></path>
                            <path d="M64.2939259,5.96977778 C64.2939259,6.82903704 64.0485926,7.53303704 63.5579259,8.08533333 C63.0435556,8.65303704 62.3632593,8.9362963 61.5111111,8.9362963 C60.6921481,8.9362963 60.0391111,8.66488889 59.5508148,8.1197037 C59.0648889,7.5757037 58.8219259,6.88948148 58.8219259,6.06222222 C58.8219259,5.19703704 59.072,4.48711111 59.5745185,3.936 C60.077037,3.38488889 60.7525926,3.10874074 61.6047407,3.10874074 C62.4237037,3.10874074 63.0838519,3.38014815 63.5816296,3.92414815 C64.0557037,4.45274074 64.2939259,5.13540741 64.2939259,5.96977778 Z M63.0068148,6.01007407 C63.0068148,5.49451852 62.8954074,5.05244444 62.6737778,4.68385185 C62.4118519,4.23822222 62.0420741,4.01540741 61.5585185,4.01540741 C61.0607407,4.01540741 60.6814815,4.23822222 60.4195556,4.68385185 C60.1967407,5.05244444 60.0865185,5.50162963 60.0865185,6.03259259 C60.0865185,6.54814815 60.1979259,6.99022222 60.4195556,7.35881481 C60.6885926,7.80444444 61.0631111,8.02725926 61.5466667,8.02725926 C62.0207407,8.02725926 62.3940741,7.80088889 62.6619259,7.34696296 C62.8906667,6.97125926 63.0068148,6.52562963 63.0068148,6.01007407 Z" id="Shape"></path>
                            <path d="M70.9724444,8.80948148 L69.7315556,8.80948148 L69.7315556,5.60948148 C69.7315556,4.62340741 69.357037,4.13037037 68.6044444,4.13037037 C68.2358519,4.13037037 67.9383704,4.26548148 67.7084444,4.53688889 C67.4785185,4.8082963 67.3635556,5.1282963 67.3635556,5.49451852 L67.3635556,8.8082963 L66.1202963,8.8082963 L66.1202963,4.81896296 C66.1202963,4.3282963 66.1060741,3.79614815 66.0764444,3.22014815 L67.1668148,3.22014815 L67.2248889,4.09362963 L67.2592593,4.09362963 C67.405037,3.82222222 67.6207407,3.59822222 67.9028148,3.41925926 C68.2405926,3.21066667 68.6162963,3.10518519 69.0299259,3.10518519 C69.5502222,3.10518519 69.984,3.27348148 70.3288889,3.61125926 C70.7591111,4.02488889 70.9724444,4.64237037 70.9724444,5.46251852 L70.9724444,8.80948148 L70.9724444,8.80948148 Z" id="Path"></path>
                            <path d="M79.3315556,4.15288889 L77.9638519,4.15288889 L77.9638519,6.86696296 C77.9638519,7.55674074 78.2068148,7.90162963 78.688,7.90162963 C78.9108148,7.90162963 79.0957037,7.88266667 79.2414815,7.84355556 L79.2734815,8.78577778 C79.0281481,8.87822222 78.7057778,8.92444444 78.3087407,8.92444444 C77.8180741,8.92444444 77.4364444,8.77511111 77.1602963,8.47644444 C76.882963,8.17777778 76.7454815,7.67525926 76.7454815,6.97007407 L76.7454815,4.15288889 L75.9288889,4.15288889 L75.9288889,3.22251852 L76.7454815,3.22251852 L76.7454815,2.19851852 L77.9626667,1.83111111 L77.9626667,3.22133333 L79.3303704,3.22133333 L79.3303704,4.15288889 L79.3315556,4.15288889 Z" id="Path"></path>
                            <path d="M85.906963,8.80948148 L84.6637037,8.80948148 L84.6637037,5.63318519 C84.6637037,4.6317037 84.2891852,4.13037037 83.538963,4.13037037 C82.962963,4.13037037 82.5694815,4.42074074 82.3537778,5.00148148 C82.317037,5.12355556 82.2957037,5.27288889 82.2957037,5.4482963 L82.2957037,8.8082963 L81.0548148,8.8082963 L81.0548148,0.658962963 L82.2957037,0.658962963 L82.2957037,4.02607407 L82.3194074,4.02607407 C82.7105185,3.41333333 83.2711111,3.10755556 83.9976296,3.10755556 C84.512,3.10755556 84.9374815,3.27585185 85.2752593,3.61362963 C85.696,4.03437037 85.906963,4.66014815 85.906963,5.48740741 L85.906963,8.80948148 L85.906963,8.80948148 Z" id="Path"></path>
                            <path d="M92.6897778,5.7517037 C92.6897778,5.97451852 92.6731852,6.16177778 92.6435556,6.31466667 L88.9185185,6.31466667 C88.9351111,6.86696296 89.1128889,7.2877037 89.4577778,7.57925926 C89.773037,7.84 90.1795556,7.97037037 90.6773333,7.97037037 C91.2284444,7.97037037 91.730963,7.88266667 92.1837037,7.70607407 L92.3780741,8.56888889 C91.8482963,8.79881481 91.2248889,8.91377778 90.5031111,8.91377778 C89.6379259,8.91377778 88.9564444,8.65896296 88.4634074,8.14933333 C87.968,7.6397037 87.7226667,6.95585185 87.7226667,6.09777778 C87.7226667,5.25511111 87.9514074,4.55348148 88.4124444,3.99407407 C88.8936296,3.39674074 89.5442963,3.09807407 90.3656296,3.09807407 C91.1691852,3.09807407 91.7795556,3.39674074 92.192,3.99407407 C92.525037,4.46814815 92.6897778,5.05481481 92.6897778,5.7517037 Z M91.5045926,5.43051852 C91.5140741,5.06192593 91.4322963,4.7442963 91.264,4.47644444 C91.0482963,4.13155556 90.72,3.95851852 90.2755556,3.95851852 C89.8702222,3.95851852 89.5395556,4.12681481 89.2871111,4.46459259 C89.0808889,4.73362963 88.9588148,5.05481481 88.9185185,5.43051852 L91.5045926,5.43051852 Z" id="Shape"></path>
                        </g>
                    </g>
                </g>
            </g>
        </g>
    </g>
</svg>